<?xml version="1.0" encoding="UTF-8" standalone="no"?>
<!-- Created with Inkscape (http://www.inkscape.org/) -->

<svg
   width="1876.186"
   height="21"
   viewBox="0 0 496.40757 5.5562499"
   version="1.1"
   id="svg5"
   inkscape:export-filename="C:\Users\gelak\desktop\mm-font.png"
   inkscape:export-xdpi="95.999306"
   inkscape:export-ydpi="95.999306"
   inkscape:version="1.1 (c68e22c387, 2021-05-23)"
   sodipodi:docname="mm.font.svg"
   xmlns:inkscape="http://www.inkscape.org/namespaces/inkscape"
   xmlns:sodipodi="http://sodipodi.sourceforge.net/DTD/sodipodi-0.dtd"
   xmlns="http://www.w3.org/2000/svg"
   xmlns:svg="http://www.w3.org/2000/svg">
  <sodipodi:namedview
     id="namedview7"
     pagecolor="#ffffff"
     bordercolor="#666666"
     borderopacity="1.0"
     inkscape:pageshadow="2"
     inkscape:pageopacity="0.0"
     inkscape:pagecheckerboard="0"
     inkscape:document-units="mm"
     showgrid="false"
     fit-margin-top="0"
     fit-margin-left="0"
     fit-margin-right="0"
     fit-margin-bottom="0"
     inkscape:zoom="0.64"
     inkscape:cx="839.0625"
     inkscape:cy="174.21875"
     inkscape:window-width="1858"
     inkscape:window-height="1177"
     inkscape:window-x="54"
     inkscape:window-y="-8"
     inkscape:window-maximized="1"
     inkscape:current-layer="layer1"
     units="px" />
  <defs
     id="defs2" />
  <g
     inkscape:label="Layer 1"
     inkscape:groupmode="layer"
     id="layer1"
     transform="translate(-161.2391,-142.9719)">
    <g
       id="g77812">
      <path
         d="m 161.46945,146.98553 h 0.73292 l 0.23035,-4.01362 h -1.19362 z m -0.13263,1.54262 h 0.99817 v -1.02609 h -0.99817 z"
         style="font-weight:bold;font-size:6.98021px;line-height:1.25;font-family:'A-OTF Folk Pro';-inkscape-font-specification:'A-OTF Folk Pro Bold';letter-spacing:1.05833px;word-spacing:0px;stroke-width:0.264583"
         id="path76926" />
      <path
         d="m 164.49787,144.84259 h 0.39787 l 0.33505,-1.87069 h -1.06797 z m 1.29134,0 h 0.40485 l 0.32807,-1.87069 h -1.06797 z"
         style="font-weight:bold;font-size:6.98021px;line-height:1.25;font-family:'A-OTF Folk Pro';-inkscape-font-specification:'A-OTF Folk Pro Bold';letter-spacing:1.05833px;word-spacing:0px;stroke-width:0.264583"
         id="path76928" />
      <path
         d="m 170.86284,147.27869 -0.18149,1.24946 h 0.58634 l 0.18149,-1.24946 h 1.07495 v -0.87252 h -0.94931 l 0.18847,-1.31228 h 1.11683 v -0.86555 h -0.99119 l 0.17451,-1.25643 h -0.57936 l -0.18149,1.25643 h -1.03307 l 0.18149,-1.25643 h -0.58634 l -0.17451,1.25643 h -1.08193 v 0.86555 h 0.95629 l -0.18847,1.31228 h -1.12381 v 0.87252 h 0.99817 l -0.18148,1.24946 h 0.57935 l 0.18149,-1.24946 z m -0.90743,-0.87252 0.18847,-1.31228 h 1.03307 l -0.18847,1.31228 z"
         style="font-weight:bold;font-size:6.98021px;line-height:1.25;font-family:'A-OTF Folk Pro';-inkscape-font-specification:'A-OTF Folk Pro Bold';letter-spacing:1.05833px;word-spacing:0px;stroke-width:0.264583"
         id="path76930" />
      <path
         d="m 176.12453,147.62868 c -0.57498,-0.14801 -0.59206,-0.723 -0.60344,-1.10442 h -0.91087 c 0.0455,0.46682 0.14802,1.3606 1.51431,1.49723 v 0.50666 h 0.42697 v -0.50666 c 0.66037,-0.0399 1.53138,-0.23341 1.53138,-1.2809 0,-0.86532 -0.59775,-1.12719 -1.53138,-1.53139 v -1.48014 c 0.50666,0.15939 0.52374,0.64329 0.53513,0.93362 h 0.91086 c -0.0455,-0.85962 -0.59206,-1.25242 -1.44599,-1.33213 v -0.35865 h -0.42697 v 0.36434 c -0.42697,0.0342 -1.41753,0.14802 -1.41753,1.23536 0,0.70022 0.38712,1.02472 1.41753,1.4403 z m 0,-2.61304 c -0.40989,-0.21063 -0.56359,-0.29603 -0.56359,-0.67745 0,-0.51805 0.35295,-0.60344 0.56359,-0.6376 z m 0.42697,1.17274 c 0.62052,0.30741 0.62052,0.6376 0.62052,0.797 0,0.4042 -0.2391,0.61483 -0.62052,0.66607 z"
         style="font-weight:bold;font-size:6.98021px;line-height:1.25;font-family:'A-OTF Folk Pro';-inkscape-font-specification:'A-OTF Folk Pro Bold';letter-spacing:1.05833px;word-spacing:0px;stroke-width:0.264583"
         id="path76932" />
      <path
         d="m 181.16505,145.81056 c -0.22871,0 -0.42379,-0.11435 -0.42379,-1.1099 0,-1.13681 0.12109,-1.33861 0.41707,-1.33861 0.20852,0 0.42377,0.074 0.42377,1.13008 0,1.06282 -0.11435,1.31843 -0.41705,1.31843 z m -0.16144,2.48888 0.34306,0.22871 3.21535,-5.32754 -0.34306,-0.22871 z m 3.4037,-0.15472 c -0.30942,0 -0.42377,-0.31615 -0.42377,-1.10317 0,-1.16372 0.1278,-1.35206 0.41705,-1.35206 0.20179,0 0.42378,0.0673 0.42378,1.1368 0,1.0561 -0.12108,1.31843 -0.41706,1.31843 z m -3.24226,-1.94401 c 0.78029,0 1.34534,-0.57176 1.34534,-1.6144 0,-0.98883 -0.49778,-1.61441 -1.34534,-1.61441 -0.80048,0 -1.35206,0.59195 -1.35206,1.62113 0,1.03592 0.55831,1.60768 1.35206,1.60768 z m 3.24226,2.32744 c 0.76684,0 1.34534,-0.55832 1.34534,-1.6144 0,-0.99556 -0.51123,-1.61442 -1.34534,-1.61442 -0.82738,0 -1.35206,0.62558 -1.35206,1.62114 0,1.02246 0.55158,1.60768 1.35206,1.60768 z"
         style="font-weight:bold;font-size:6.98021px;line-height:1.25;font-family:'A-OTF Folk Pro';-inkscape-font-specification:'A-OTF Folk Pro Bold';letter-spacing:1.05833px;word-spacing:0px;stroke-width:0.264583"
         id="path76934" />
      <path
         d="m 189.90436,145.31279 c 0.58523,-0.24216 1.11664,-0.65922 1.11664,-1.34534 0,-0.69285 -0.6794,-0.99555 -1.31171,-0.99555 -0.41032,0 -1.44624,0.12781 -1.44624,1.35879 0,0.38343 0.21526,0.6794 0.49105,1.06282 -0.61885,0.33634 -1.27134,0.68612 -1.27134,1.64131 0,1.43951 1.49333,1.49333 1.84312,1.49333 0.82737,0 1.2377,-0.29597 1.48659,-0.48433 l 0.29597,0.38342 h 1.46642 l -0.94173,-1.09644 c 0.14798,-0.22199 0.4305,-0.62558 0.56504,-1.36552 h -1.083 c -0.0201,0.20852 -0.0336,0.32961 -0.1278,0.63231 z m -0.28925,-0.4036 c -0.10089,-0.11435 -0.2287,-0.35652 -0.28251,-0.45741 -0.0404,-0.0808 -0.13454,-0.25562 -0.13454,-0.51796 0,-0.3767 0.26234,-0.53141 0.45742,-0.53141 0.11435,0 0.47087,0.0808 0.47087,0.59195 0,0.36324 -0.21526,0.65921 -0.51124,0.91483 z m 0.80048,2.64359 c -0.21525,0.21525 -0.53813,0.53813 -1.01572,0.53813 -0.74667,0 -0.87448,-0.65922 -0.87448,-1.05609 0,-0.74666 0.35652,-1.06281 0.55832,-1.23771 z"
         style="font-weight:bold;font-size:6.98021px;line-height:1.25;font-family:'A-OTF Folk Pro';-inkscape-font-specification:'A-OTF Folk Pro Bold';letter-spacing:1.05833px;word-spacing:0px;stroke-width:0.264583"
         id="path76936" />
      <path
         d="m 194.64001,144.84259 h 0.39787 l 0.33505,-1.87069 h -1.06797 z"
         style="font-weight:bold;font-size:6.98021px;line-height:1.25;font-family:'A-OTF Folk Pro';-inkscape-font-specification:'A-OTF Folk Pro Bold';letter-spacing:1.05833px;word-spacing:0px;stroke-width:0.264583"
         id="path76938" />
      <path
         d="m 198.839,148.23292 c -0.21848,-0.23619 -0.46057,-0.49599 -0.67314,-1.19864 -0.0767,-0.2539 -0.17713,-0.67313 -0.17713,-1.28721 0,-0.66131 0.11219,-1.16911 0.28933,-1.61787 0.18894,-0.47236 0.35427,-0.6495 0.56094,-0.86797 l -0.18895,-0.28933 c -0.74989,0.61998 -1.54701,1.2695 -1.54701,2.78108 0,1.70053 1.11597,2.47403 1.55291,2.77517 z"
         style="font-weight:bold;font-size:6.98021px;line-height:1.25;font-family:'A-OTF Folk Pro';-inkscape-font-specification:'A-OTF Folk Pro Bold';letter-spacing:1.05833px;word-spacing:0px;stroke-width:0.264583"
         id="path76940" />
      <path
         d="m 200.75805,148.52815 c 0.43694,-0.30114 1.55291,-1.07464 1.55291,-2.77517 0,-1.51158 -0.79712,-2.1611 -1.55291,-2.78108 l -0.18895,0.28933 c 0.20666,0.21847 0.3779,0.39561 0.56684,0.86797 0.20076,0.51961 0.28933,1.03922 0.28933,1.62378 0,0.73217 -0.14761,1.23997 -0.29523,1.61196 -0.18304,0.46646 -0.34837,0.6436 -0.55504,0.86798 z"
         style="font-weight:bold;font-size:6.98021px;line-height:1.25;font-family:'A-OTF Folk Pro';-inkscape-font-specification:'A-OTF Folk Pro Bold';letter-spacing:1.05833px;word-spacing:0px;stroke-width:0.264583"
         id="path76942" />
      <path
         d="m 206.42129,143.87932 -0.34902,-0.62124 -0.57237,0.43278 0.0768,-0.71896 h -0.69802 l 0.0768,0.71896 -0.57238,-0.43278 -0.34203,0.62124 0.6352,0.29317 -0.6352,0.28619 0.34203,0.62124 0.57238,-0.43277 -0.0768,0.71896 h 0.69802 l -0.0768,-0.71896 0.57237,0.43277 0.34902,-0.62124 -0.64218,-0.28619 z"
         style="font-weight:bold;font-size:6.98021px;line-height:1.25;font-family:'A-OTF Folk Pro';-inkscape-font-specification:'A-OTF Folk Pro Bold';letter-spacing:1.05833px;word-spacing:0px;stroke-width:0.264583"
         id="path76944" />
      <path
         d="m 208.15139,145.35215 v 0.79574 h 1.71713 v 1.71713 h 0.78877 v -1.71713 h 1.72411 v -0.79574 h -1.72411 v -1.71712 h -0.78877 v 1.71712 z"
         style="font-weight:bold;font-size:6.98021px;line-height:1.25;font-family:'A-OTF Folk Pro';-inkscape-font-specification:'A-OTF Folk Pro Bold';letter-spacing:1.05833px;word-spacing:0px;stroke-width:0.264583"
         id="path76946" />
      <path
         d="m 214.1534,147.62072 h 0.42579 c -0.0349,0.40485 -0.30713,0.55842 -0.46768,0.64218 l 0.23035,0.26525 c 0.31411,-0.12564 0.91441,-0.36297 0.91441,-1.13777 v -0.85857 h -1.10287 z"
         style="font-weight:bold;font-size:6.98021px;line-height:1.25;font-family:'A-OTF Folk Pro';-inkscape-font-specification:'A-OTF Folk Pro Bold';letter-spacing:1.05833px;word-spacing:0px;stroke-width:0.264583"
         id="path76948" />
      <path
         d="m 216.98638,146.13743 h 1.79392 v -0.77481 h -1.79392 z"
         style="font-weight:bold;font-size:6.98021px;line-height:1.25;font-family:'A-OTF Folk Pro';-inkscape-font-specification:'A-OTF Folk Pro Bold';letter-spacing:1.05833px;word-spacing:0px;stroke-width:0.264583"
         id="path76950" />
      <path
         d="m 221.61327,147.43924 h -1.10287 v 1.08891 h 1.10287 z"
         style="font-weight:bold;font-size:6.98021px;line-height:1.25;font-family:'A-OTF Folk Pro';-inkscape-font-specification:'A-OTF Folk Pro Bold';letter-spacing:1.05833px;word-spacing:0px;stroke-width:0.264583"
         id="path76952" />
      <path
         d="m 226.0206,142.9719 -2.67722,5.37463 0.36324,0.18162 2.67722,-5.37462 z"
         style="font-weight:bold;font-size:6.98021px;line-height:1.25;font-family:'A-OTF Folk Pro';-inkscape-font-specification:'A-OTF Folk Pro Bold';letter-spacing:1.05833px;word-spacing:0px;stroke-width:0.264583"
         id="path76954" />
      <path
         d="m 232.26431,145.75003 c 0,-1.5875 -0.81393,-2.77813 -2.07854,-2.77813 -1.15027,0 -2.07183,1.02246 -2.07183,2.81176 0,1.57404 0.82066,2.74449 2.07855,2.74449 1.20407,0 2.07182,-1.10991 2.07182,-2.77812 z m -1.10318,0 c 0,2.00455 -0.38342,2.34761 -0.95518,2.34761 -0.5516,0 -0.98883,-0.2287 -0.98883,-2.32071 0,-2.03818 0.38342,-2.37452 0.95519,-2.37452 0.65922,0 0.98882,0.41706 0.98882,2.34762 z"
         style="font-weight:bold;font-size:6.98021px;line-height:1.25;font-family:'A-OTF Folk Pro';-inkscape-font-specification:'A-OTF Folk Pro Bold';letter-spacing:1.05833px;word-spacing:0px;stroke-width:0.264583"
         id="path76956" />
      <path
         d="m 235.14614,148.52815 h 1.08193 v -5.55624 h -1.07495 c -0.34203,0.47465 -0.94233,0.58633 -1.15871,0.62821 v 0.45372 c 0.48163,-0.014 0.90742,-0.0907 1.15173,-0.20243 z"
         style="font-weight:bold;font-size:6.98021px;line-height:1.25;font-family:'A-OTF Folk Pro';-inkscape-font-specification:'A-OTF Folk Pro Bold';letter-spacing:1.05833px;word-spacing:0px;stroke-width:0.264583"
         id="path76958" />
      <path
         d="m 242.18531,148.52815 v -0.43847 h -2.93913 c 0.0411,-0.37681 0.11647,-1.00711 1.13044,-1.59631 0.85638,-0.50013 1.79498,-0.65085 1.79498,-1.89091 0,-1.47298 -1.43187,-1.63056 -1.91146,-1.63056 -1.97997,0 -2.19235,1.42504 -2.28827,2.02793 l 1.10989,0.12332 c 0.0342,-0.71251 0.0822,-1.71277 1.08247,-1.71277 0.86324,0 0.87694,0.95229 0.87694,1.09617 0,0.85639 -0.45217,1.12358 -0.73306,1.28801 -1.58946,0.9249 -2.17866,1.45243 -2.34994,2.73359 z"
         style="font-weight:bold;font-size:6.98021px;line-height:1.25;font-family:'A-OTF Folk Pro';-inkscape-font-specification:'A-OTF Folk Pro Bold';letter-spacing:1.05833px;word-spacing:0px;stroke-width:0.264583"
         id="path76960" />
      <path
         d="m 245.30112,145.33297 v 0.43051 h 0.76683 c 0.45742,0 0.96865,0.15471 0.96865,1.12335 0,0.7803 -0.36324,1.21081 -0.9821,1.21081 -0.73321,0 -1.02245,-0.45069 -1.08972,-1.41933 l -1.04936,0.24889 c 0.18162,0.61212 0.46414,1.60095 2.14581,1.60095 0.55159,0 2.03819,-0.13454 2.03819,-1.5875 0,-1.17045 -1.02245,-1.35207 -1.3857,-1.41933 0.64576,-0.074 1.25116,-0.39688 1.25116,-1.17717 0,-0.9081 -0.8341,-1.37225 -1.76911,-1.37225 -1.4866,0 -1.87675,0.92828 -1.99783,1.19735 l 1.01573,0.2758 c 0.0808,-0.41705 0.2018,-1.04936 0.87447,-1.04936 0.69958,0 0.78702,0.58521 0.78702,1.02245 0,0.34979 -0.0336,0.91483 -0.80721,0.91483 z"
         style="font-weight:bold;font-size:6.98021px;line-height:1.25;font-family:'A-OTF Folk Pro';-inkscape-font-specification:'A-OTF Folk Pro Bold';letter-spacing:1.05833px;word-spacing:0px;stroke-width:0.264583"
         id="path76962" />
      <path
         d="m 252.31448,148.52815 h 1.08193 v -1.28436 h 0.81668 v -0.44673 h -0.81668 v -3.82515 h -1.27738 l -2.28951,3.82515 v 0.44673 h 2.48496 z m -1.93352,-1.73109 1.93352,-3.2807 v 3.2807 z"
         style="font-weight:bold;font-size:6.98021px;line-height:1.25;font-family:'A-OTF Folk Pro';-inkscape-font-specification:'A-OTF Folk Pro Bold';letter-spacing:1.05833px;word-spacing:0px;stroke-width:0.264583"
         id="path76964" />
      <path
         d="m 256.18983,146.0549 0.87694,0.0685 c 0.20553,-0.6714 0.6166,-0.9523 1.05507,-0.9523 0.27404,0 0.9386,0.17813 0.9386,1.43189 0,0.23978 0,1.47298 -1.00711,1.47298 -0.90435,0 -1.00026,-0.9249 -1.04137,-1.31541 l -1.06877,0.21239 c 0.16442,0.55493 0.46587,1.5552 2.1718,1.5552 1.80869,0 2.06904,-1.27431 2.06904,-1.93201 0,-1.1784 -0.8701,-1.89776 -1.82925,-1.89776 -0.5892,0 -0.80843,0.15757 -1.05507,0.34255 l 0.0685,-1.62371 h 2.54861 v -0.44532 h -3.61738 z"
         style="font-weight:bold;font-size:6.98021px;line-height:1.25;font-family:'A-OTF Folk Pro';-inkscape-font-specification:'A-OTF Folk Pro Bold';letter-spacing:1.05833px;word-spacing:0px;stroke-width:0.264583"
         id="path76966" />
      <path
         d="m 265.97032,144.20961 c -0.43051,-0.89465 -0.92829,-1.23771 -1.76239,-1.23771 -1.23771,0 -2.2938,0.87447 -2.2938,2.93283 0,0.86102 0.23543,1.51351 0.53813,1.91038 0.42379,0.56505 1.07628,0.71304 1.64132,0.71304 1.00227,0 1.91711,-0.6054 1.91711,-1.9642 0,-1.29152 -1.06955,-1.72203 -1.77585,-1.72203 -0.69958,0 -1.00228,0.29598 -1.27135,0.55832 0.0538,-1.36552 0.37669,-2.018 1.09645,-2.018 0.68613,0 0.82738,0.73993 0.88792,1.07626 z m -2.95974,1.76913 c 0.44396,-0.67267 0.92155,-0.68613 1.04263,-0.68613 0.55159,0 0.92828,0.39688 0.92828,1.35207 0,0.39014 0,1.43278 -0.96191,1.43278 -0.96864,0 -0.99555,-1.21081 -1.009,-2.09872 z"
         style="font-weight:bold;font-size:6.98021px;line-height:1.25;font-family:'A-OTF Folk Pro';-inkscape-font-specification:'A-OTF Folk Pro Bold';letter-spacing:1.05833px;word-spacing:0px;stroke-width:0.264583"
         id="path76968" />
      <path
         d="m 271.87309,142.97191 h -4.13229 v 0.45371 h 3.01546 l -2.08709,5.10253 h 1.2355 l 1.96842,-5.07461 z"
         style="font-weight:bold;font-size:6.98021px;line-height:1.25;font-family:'A-OTF Folk Pro';-inkscape-font-specification:'A-OTF Folk Pro Bold';letter-spacing:1.05833px;word-spacing:0px;stroke-width:0.264583"
         id="path76970" />
      <path
         d="m 276.49567,145.61549 c 0.32288,-0.1009 0.98209,-0.30942 0.98209,-1.27134 0,-1.10991 -0.92828,-1.37225 -1.80275,-1.37225 -0.91484,0 -1.80948,0.28252 -1.80948,1.37225 0,0.96192 0.66594,1.17044 0.9821,1.27134 -0.2758,0.0404 -1.24444,0.2018 -1.24444,1.39243 0,1.19735 0.9821,1.52023 2.07182,1.52023 1.1099,0 2.06509,-0.33633 2.06509,-1.52023 0,-1.19063 -0.96191,-1.34534 -1.24443,-1.39243 z m -0.82066,-0.2287 c -0.69285,0 -0.75339,-0.53142 -0.75339,-0.96192 0,-0.59195 0.12108,-1.02246 0.76011,-1.02246 0.6794,0 0.73993,0.55159 0.73993,1.02246 0,0.41032 -0.0471,0.96192 -0.74665,0.96192 z m 0,2.71085 c -0.97537,0 -0.97537,-0.85429 -0.97537,-1.15026 0,-0.2758 0,-1.13009 0.97537,-1.13009 0.96864,0 0.96864,0.85429 0.96864,1.13009 0,0.80047 -0.32288,1.15026 -0.96864,1.15026 z"
         style="font-weight:bold;font-size:6.98021px;line-height:1.25;font-family:'A-OTF Folk Pro';-inkscape-font-specification:'A-OTF Folk Pro Bold';letter-spacing:1.05833px;word-spacing:0px;stroke-width:0.264583"
         id="path76972" />
      <path
         d="m 279.51056,147.29044 c 0.42379,0.88119 0.9081,1.23771 1.76912,1.23771 1.20408,0 2.2938,-0.84757 2.2938,-2.93284 0,-1.43278 -0.6054,-2.62341 -2.18617,-2.62341 -0.9821,0 -1.91711,0.59195 -1.91711,1.97092 0,1.2848 1.06955,1.72204 1.77585,1.72204 0.69957,0 1.00228,-0.29598 1.27134,-0.56505 -0.0538,1.36552 -0.37669,2.01801 -1.09645,2.01801 -0.68612,0 -0.82065,-0.73321 -0.88792,-1.06954 z m 2.95975,-1.7624 c -0.43724,0.65922 -0.90811,0.6794 -1.04264,0.6794 -0.66595,0 -0.92156,-0.57176 -0.92156,-1.34534 0,-0.39015 0,-1.43278 0.95519,-1.43278 0.96864,0 0.99556,1.2108 1.00901,2.09872 z"
         style="font-weight:bold;font-size:6.98021px;line-height:1.25;font-family:'A-OTF Folk Pro';-inkscape-font-specification:'A-OTF Folk Pro Bold';letter-spacing:1.05833px;word-spacing:0px;stroke-width:0.264583"
         id="path76974" />
      <path
         d="m 286.40645,146.58765 h -1.10287 v 1.08891 h 1.10287 z m 0,-2.76416 h -1.10287 v 1.09589 h 1.10287 z"
         style="font-weight:bold;font-size:6.98021px;line-height:1.25;font-family:'A-OTF Folk Pro';-inkscape-font-specification:'A-OTF Folk Pro Bold';letter-spacing:1.05833px;word-spacing:0px;stroke-width:0.264583"
         id="path76976" />
      <path
         d="m 289.28131,143.36977 h -1.10287 v 1.09589 h 1.10287 z m -1.10287,3.85307 h 0.42579 c -0.0349,0.40485 -0.30713,0.55842 -0.46768,0.64218 l 0.23035,0.26525 c 0.31411,-0.12564 0.91441,-0.36297 0.91441,-1.13777 v -0.85857 h -1.10287 z"
         style="font-weight:bold;font-size:6.98021px;line-height:1.25;font-family:'A-OTF Folk Pro';-inkscape-font-specification:'A-OTF Folk Pro Bold';letter-spacing:1.05833px;word-spacing:0px;stroke-width:0.264583"
         id="path76978" />
      <path
         d="m 291.01142,145.408 v 0.68406 l 4.19511,2.12198 v -0.92138 l -3.15505,-1.54263 3.15505,-1.54263 v -0.92139 z"
         style="font-weight:bold;font-size:6.98021px;line-height:1.25;font-family:'A-OTF Folk Pro';-inkscape-font-specification:'A-OTF Folk Pro Bold';letter-spacing:1.05833px;word-spacing:0px;stroke-width:0.264583"
         id="path76980" />
      <path
         d="m 296.93663,146.23514 v 0.79575 h 4.23001 v -0.79575 z m 0,-1.76599 v 0.78876 h 4.23001 v -0.78876 z"
         style="font-weight:bold;font-size:6.98021px;line-height:1.25;font-family:'A-OTF Folk Pro';-inkscape-font-specification:'A-OTF Folk Pro Bold';letter-spacing:1.05833px;word-spacing:0px;stroke-width:0.264583"
         id="path76982" />
      <path
         d="m 302.89675,143.28601 v 0.92139 l 3.16204,1.54263 -3.16204,1.54263 v 0.92138 l 4.19511,-2.12198 V 145.408 Z"
         style="font-weight:bold;font-size:6.98021px;line-height:1.25;font-family:'A-OTF Folk Pro';-inkscape-font-specification:'A-OTF Folk Pro Bold';letter-spacing:1.05833px;word-spacing:0px;stroke-width:0.264583"
         id="path76984" />
      <path
         d="m 309.89074,147.01406 h 0.98656 v -0.37682 c 0,-0.56863 0.0685,-0.91804 0.6029,-1.30171 0.40421,-0.28774 0.69881,-0.52753 0.69881,-1.09617 0,-1.17154 -1.26746,-1.26746 -1.62371,-1.26746 -1.42503,0 -1.65797,0.9249 -1.73333,1.2332 l 1.08932,0.21924 c 0.0548,-0.84269 0.2946,-1.02081 0.63031,-1.02081 0.58919,0 0.58919,0.65085 0.58919,0.81527 0,0.27405 0,0.54124 -0.49327,1.00712 -0.46588,0.43161 -0.74678,0.67826 -0.74678,1.52095 z m 0,1.51409 h 0.99341 v -1.00711 h -0.99341 z"
         style="font-weight:bold;font-size:6.98021px;line-height:1.25;font-family:'A-OTF Folk Pro';-inkscape-font-specification:'A-OTF Folk Pro Bold';letter-spacing:1.05833px;word-spacing:0px;stroke-width:0.264583"
         id="path76986" />
      <path
         d="m 317.32629,144.47196 c -0.0875,-0.0874 -0.31615,-0.32288 -0.80721,-0.32288 -0.96864,0 -1.52023,1.08972 -1.52023,2.07854 0,0.18834 0,1.14353 0.98883,1.14353 0.5314,0 0.8072,-0.28252 0.96192,-0.44395 0.17489,0.37669 0.52467,0.45068 0.8072,0.45068 0.97536,0 1.57404,-0.81393 1.57404,-1.91038 0,-1.4866 -1.22426,-2.4956 -2.6234,-2.4956 -1.62113,0 -2.79831,1.29152 -2.79831,2.79158 0,1.46642 1.15027,2.76467 2.81176,2.76467 0.63903,0 1.28479,-0.21526 1.77584,-0.63903 l -0.28252,-0.28253 c -0.32961,0.26907 -0.76012,0.53813 -1.50005,0.53813 -1.36551,0 -2.40816,-1.06954 -2.40816,-2.38124 0,-1.4126 1.12336,-2.40143 2.38798,-2.40143 1.15026,0 2.21308,0.78703 2.21308,2.07855 0,0.76684 -0.39015,1.39242 -0.84756,1.39242 -0.15471,0 -0.28925,-0.0874 -0.28925,-0.2758 0,-0.18834 0.39687,-1.95073 0.47087,-2.3207 h -0.86101 z m -0.45069,2.07181 c -0.10762,0.12781 -0.31616,0.38343 -0.61886,0.38343 -0.26906,0 -0.35651,-0.2018 -0.35651,-0.4776 0,-0.32289 0.2287,-1.87002 0.91483,-1.87002 0.25562,0 0.32961,0.16144 0.37669,0.25561 0,0.0404 -0.31615,1.37897 -0.31615,1.64805 z"
         style="font-weight:bold;font-size:6.98021px;line-height:1.25;font-family:'A-OTF Folk Pro';-inkscape-font-specification:'A-OTF Folk Pro Bold';letter-spacing:1.05833px;word-spacing:0px;stroke-width:0.264583"
         id="path76988" />
      <path
         d="m 324.73254,147.09721 0.43278,1.43094 h 1.16569 l -1.84975,-5.55624 h -1.57753 l -1.84278,5.55624 h 1.1657 l 0.40485,-1.43094 z m -1.52866,-1.8358 0.48861,-1.66827 0.4956,1.66827 0.42579,1.38209 h -1.84277 z"
         style="font-weight:bold;font-size:6.98021px;line-height:1.25;font-family:'A-OTF Folk Pro';-inkscape-font-specification:'A-OTF Folk Pro Bold';letter-spacing:1.05833px;word-spacing:0px;stroke-width:0.264583"
         id="path76990" />
      <path
         d="m 330.83227,148.52815 c 1.17965,0 1.80089,-0.56539 1.80089,-1.52866 0,-1.13778 -0.85159,-1.31228 -1.3402,-1.41699 0.43975,-0.1047 1.17267,-0.27222 1.17267,-1.27039 0,-0.94233 -0.69802,-1.3402 -1.62638,-1.3402 h -2.77813 v 5.55624 z m -1.68922,-5.10253 h 1.32624 c 0.61426,0 0.86555,0.36995 0.86555,0.96327 0,0.53747 -0.18847,1.01911 -0.90045,1.01911 h -1.29134 z m 1.38209,2.43609 c 0.57935,0 0.97723,0.31411 0.97723,1.0959 0,0.61425 -0.21639,1.12381 -0.96327,1.12381 h -1.39605 v -2.21971 z"
         style="font-weight:bold;font-size:6.98021px;line-height:1.25;font-family:'A-OTF Folk Pro';-inkscape-font-specification:'A-OTF Folk Pro Bold';letter-spacing:1.05833px;word-spacing:0px;stroke-width:0.264583"
         id="path76992" />
      <path
         d="m 337.78715,146.73885 c -0.0336,0.82738 -0.36324,1.35879 -1.08972,1.35879 -0.87447,0 -1.21081,-0.75339 -1.21081,-2.34761 0,-1.54714 0.31616,-2.34762 1.20408,-2.34762 0.46414,0 1.06282,0.34979 1.08972,1.26462 h 1.07628 c -0.0942,-1.083 -1.009,-1.69513 -2.12564,-1.69513 -1.3117,0 -2.36779,0.82739 -2.36779,2.77813 0,1.8902 0.97537,2.77812 2.3947,2.77812 0.47087,0 1.89692,-0.10091 2.12563,-1.7893 z"
         style="font-weight:bold;font-size:6.98021px;line-height:1.25;font-family:'A-OTF Folk Pro';-inkscape-font-specification:'A-OTF Folk Pro Bold';letter-spacing:1.05833px;word-spacing:0px;stroke-width:0.264583"
         id="path76994" />
      <path
         d="m 340.61371,148.52815 h 2.21273 c 2.03124,0 2.35931,-1.77995 2.35931,-2.7502 0,-1.54263 -0.6701,-2.80604 -2.35233,-2.80604 h -2.21971 z m 1.77995,-5.10253 c 1.21456,0 1.64035,0.92837 1.64035,2.21971 0,1.04703 -0.18148,2.43609 -1.62639,2.43609 h -0.71198 v -4.6558 z"
         style="font-weight:bold;font-size:6.98021px;line-height:1.25;font-family:'A-OTF Folk Pro';-inkscape-font-specification:'A-OTF Folk Pro Bold';letter-spacing:1.05833px;word-spacing:0px;stroke-width:0.264583"
         id="path76996" />
      <path
         d="m 347.99779,145.93849 h 2.48495 v -0.44673 h -2.48495 v -2.06614 h 2.65248 v -0.45371 h -3.73441 v 5.55624 h 3.81119 v -0.44673 h -2.72926 z"
         style="font-weight:bold;font-size:6.98021px;line-height:1.25;font-family:'A-OTF Folk Pro';-inkscape-font-specification:'A-OTF Folk Pro Bold';letter-spacing:1.05833px;word-spacing:0px;stroke-width:0.264583"
         id="path76998" />
      <path
         d="m 356.04499,145.93151 v -0.44673 h -2.5059 v -2.05916 h 2.75021 v -0.45371 h -3.83214 v 5.55624 h 1.08193 v -2.59664 z"
         style="font-weight:bold;font-size:6.98021px;line-height:1.25;font-family:'A-OTF Folk Pro';-inkscape-font-specification:'A-OTF Folk Pro Bold';letter-spacing:1.05833px;word-spacing:0px;stroke-width:0.264583"
         id="path77000" />
      <path
         d="m 360.34685,145.60203 v 0.43724 h 1.09645 v 1.36552 c -0.2018,0.55832 -0.63904,0.69285 -1.04936,0.69285 -0.92156,0 -1.31171,-0.52468 -1.31171,-2.44179 0,-1.62785 0.38342,-2.25344 1.27808,-2.25344 0.55159,0 1.0359,0.32961 1.02245,1.22425 h 1.08299 c -0.15471,-0.98882 -0.94845,-1.65476 -2.09199,-1.65476 -0.93501,0 -2.35434,0.46415 -2.35434,2.77813 0,2.12563 1.18389,2.77812 2.40142,2.77812 0.98883,0 1.66822,-0.40361 2.08528,-1.26462 v -1.6615 z"
         style="font-weight:bold;font-size:6.98021px;line-height:1.25;font-family:'A-OTF Folk Pro';-inkscape-font-specification:'A-OTF Folk Pro Bold';letter-spacing:1.05833px;word-spacing:0px;stroke-width:0.264583"
         id="path77002" />
      <path
         d="m 367.61464,145.49176 h -2.29649 v -2.51985 h -1.08193 v 5.55624 h 1.08193 v -2.58966 h 2.29649 v 2.58966 h 1.08193 v -5.55624 h -1.08193 z"
         style="font-weight:bold;font-size:6.98021px;line-height:1.25;font-family:'A-OTF Folk Pro';-inkscape-font-specification:'A-OTF Folk Pro Bold';letter-spacing:1.05833px;word-spacing:0px;stroke-width:0.264583"
         id="path77004" />
      <path
         d="m 370.42669,148.52815 h 1.08193 v -5.55624 h -1.08193 z"
         style="font-weight:bold;font-size:6.98021px;line-height:1.25;font-family:'A-OTF Folk Pro';-inkscape-font-specification:'A-OTF Folk Pro Bold';letter-spacing:1.05833px;word-spacing:0px;stroke-width:0.264583"
         id="path77006" />
      <path
         d="m 376.95887,142.9719 h -1.06192 v 4.28879 c 0,0.27405 -0.0822,0.82898 -0.77417,0.82898 -0.81529,0 -0.80844,-0.69196 -0.79474,-1.39077 h -1.08932 c 0,1.32226 0.78787,1.82925 1.82924,1.82925 1.30171,0 1.89091,-0.73993 1.89091,-1.72649 z"
         style="font-weight:bold;font-size:6.98021px;line-height:1.25;font-family:'A-OTF Folk Pro';-inkscape-font-specification:'A-OTF Folk Pro Bold';letter-spacing:1.05833px;word-spacing:0px;stroke-width:0.264583"
         id="path77008" />
      <path
         d="m 381.97667,148.52815 h 1.40302 l -2.5757,-3.40634 2.38724,-2.1499 h -0.73293 l -2.68738,2.42911 v -2.42911 h -1.08193 v 5.55624 h 1.08193 v -2.49193 l 0.22337,-0.22337 z"
         style="font-weight:bold;font-size:6.98021px;line-height:1.25;font-family:'A-OTF Folk Pro';-inkscape-font-specification:'A-OTF Folk Pro Bold';letter-spacing:1.05833px;word-spacing:0px;stroke-width:0.264583"
         id="path77010" />
      <path
         d="m 386.19173,142.97191 h -1.08193 v 5.55624 h 3.84609 v -0.44673 h -2.76416 z"
         style="font-weight:bold;font-size:6.98021px;line-height:1.25;font-family:'A-OTF Folk Pro';-inkscape-font-specification:'A-OTF Folk Pro Bold';letter-spacing:1.05833px;word-spacing:0px;stroke-width:0.264583"
         id="path77012" />
      <path
         d="m 393.35244,147.96974 -1.28435,-4.99783 H 390.686 v 5.55624 h 1.07496 v -4.75352 l 1.22153,4.75352 h 0.73991 l 1.22153,-4.75352 v 4.75352 h 1.08193 v -5.55624 h -1.38906 z"
         style="font-weight:bold;font-size:6.98021px;line-height:1.25;font-family:'A-OTF Folk Pro';-inkscape-font-specification:'A-OTF Folk Pro Bold';letter-spacing:1.05833px;word-spacing:0px;stroke-width:0.264583"
         id="path77014" />
      <path
         d="m 397.75596,148.52815 h 1.08194 v -4.73956 l 2.12198,4.73956 h 1.28436 v -5.55624 h -1.08193 v 4.75352 l -2.12897,-4.75352 h -1.27738 z"
         style="font-weight:bold;font-size:6.98021px;line-height:1.25;font-family:'A-OTF Folk Pro';-inkscape-font-specification:'A-OTF Folk Pro Bold';letter-spacing:1.05833px;word-spacing:0px;stroke-width:0.264583"
         id="path77016" />
      <path
         d="m 403.9744,145.75003 c -0.007,1.62113 0.75339,2.77812 2.28707,2.77812 1.53369,0 2.28708,-1.17045 2.28708,-2.77812 0,-1.64132 -0.7803,-2.77813 -2.28708,-2.77813 -1.53368,0 -2.28707,1.16372 -2.28707,2.77813 z m 3.46425,0 c 0,1.66821 -0.32289,2.34761 -1.157,2.34761 -0.76684,0 -1.20407,-0.44396 -1.20407,-2.34761 0,-1.66149 0.32288,-2.34762 1.15699,-2.34762 0.76684,0 1.20408,0.44396 1.20408,2.34762 z"
         style="font-weight:bold;font-size:6.98021px;line-height:1.25;font-family:'A-OTF Folk Pro';-inkscape-font-specification:'A-OTF Folk Pro Bold';letter-spacing:1.05833px;word-spacing:0px;stroke-width:0.264583"
         id="path77018" />
      <path
         d="m 412.7706,146.18978 c 1.01213,0 1.72411,-0.55143 1.72411,-1.60545 0,-1.05401 -0.67708,-1.61242 -1.71713,-1.61242 h -2.49892 v 5.55624 h 1.08194 v -2.33837 z m -1.41,-2.76416 h 0.99817 c 0.67708,0 0.98421,0.39787 0.98421,1.13777 0,0.53748 -0.14659,1.17966 -1.00515,1.17966 h -0.97723 z"
         style="font-weight:bold;font-size:6.98021px;line-height:1.25;font-family:'A-OTF Folk Pro';-inkscape-font-specification:'A-OTF Folk Pro Bold';letter-spacing:1.05833px;word-spacing:0px;stroke-width:0.264583"
         id="path77020" />
      <path
         d="m 420.96715,147.59987 c -0.26235,0.007 -0.47087,0.0201 -0.71976,0.11435 0.5516,-0.72648 0.5516,-1.75566 0.5516,-1.96419 0,-1.60768 -0.7534,-2.77813 -2.28709,-2.77813 -1.51349,0 -2.28707,1.13681 -2.28707,2.77813 0,1.99109 1.09646,2.77812 2.22653,2.77812 0.38343,0 0.61213,-0.0605 1.00901,-0.1749 0.15472,-0.0404 0.36325,-0.074 0.56504,-0.074 0.0874,0 0.55832,0 0.94174,0.19507 z m -1.27807,-1.84984 c 0,1.66821 -0.32288,2.34761 -1.15699,2.34761 -0.76685,0 -1.20408,-0.44396 -1.20408,-2.34761 0,-1.66149 0.32288,-2.34762 1.15699,-2.34762 0.76685,0 1.20408,0.44396 1.20408,2.34762 z"
         style="font-weight:bold;font-size:6.98021px;line-height:1.25;font-family:'A-OTF Folk Pro';-inkscape-font-specification:'A-OTF Folk Pro Bold';letter-spacing:1.05833px;word-spacing:0px;stroke-width:0.264583"
         id="path77022" />
      <path
         d="m 424.77735,146.09904 c 0.67708,0 0.96327,0.46069 0.96327,1.61243 v 0.81668 h 1.13777 v -0.38391 c 0,-1.74505 -0.39787,-2.0801 -1.30529,-2.24065 0.43277,-0.0977 1.27737,-0.28619 1.27737,-1.43094 0,-0.92837 -0.62123,-1.50074 -1.66827,-1.50074 h -2.48495 v 5.55624 h 1.08193 v -2.42911 z m -0.99817,-2.67342 h 1.01213 c 0.73292,0 0.90743,0.57238 0.90743,1.08193 0,0.42579 -0.0907,1.14476 -0.90045,1.14476 h -1.01911 z"
         style="font-weight:bold;font-size:6.98021px;line-height:1.25;font-family:'A-OTF Folk Pro';-inkscape-font-specification:'A-OTF Folk Pro Bold';letter-spacing:1.05833px;word-spacing:0px;stroke-width:0.264583"
         id="path77024" />
      <path
         d="m 428.6085,146.7523 c 0.0942,1.3117 0.88793,1.77585 2.13909,1.77585 0.68612,0 1.96419,-0.16817 1.96419,-1.52023 0,-1.01573 -0.78703,-1.35879 -1.52023,-1.68167 -1.22426,-0.53141 -1.4597,-0.63231 -1.4597,-1.14354 0,-0.53142 0.33634,-0.76012 0.80721,-0.76012 0.96192,0 0.9821,0.75339 0.99555,1.13008 h 1.07627 c -0.0942,-1.23098 -1.02919,-1.58077 -1.98438,-1.58077 -0.66594,0 -1.90365,0.16817 -1.90365,1.47315 0,0.84756 0.48433,1.22426 1.73549,1.72203 0.54486,0.22198 1.17717,0.4776 1.17717,1.10991 0,0.75338 -0.71303,0.80047 -0.90811,0.80047 -1.009,0 -1.02918,-0.86775 -1.04263,-1.32516 z"
         style="font-weight:bold;font-size:6.98021px;line-height:1.25;font-family:'A-OTF Folk Pro';-inkscape-font-specification:'A-OTF Folk Pro Bold';letter-spacing:1.05833px;word-spacing:0px;stroke-width:0.264583"
         id="path77026" />
      <path
         d="m 438.8743,143.42562 v -0.45371 h -4.43243 v 0.45371 h 1.67525 v 5.10253 h 1.08193 v -5.10253 z"
         style="font-weight:bold;font-size:6.98021px;line-height:1.25;font-family:'A-OTF Folk Pro';-inkscape-font-specification:'A-OTF Folk Pro Bold';letter-spacing:1.05833px;word-spacing:0px;stroke-width:0.264583"
         id="path77028" />
      <path
         d="m 443.93402,142.9719 v 3.63794 c 0,0.62345 -0.13702,1.46613 -1.13043,1.46613 -0.97971,0 -1.13729,-0.80843 -1.13729,-1.46613 v -3.63794 h -1.06192 v 3.28853 c 0,1.45928 0.644,2.26772 2.17865,2.26772 1.56205,0 2.21291,-0.78788 2.21291,-2.26772 v -3.28853 z"
         style="font-weight:bold;font-size:6.98021px;line-height:1.25;font-family:'A-OTF Folk Pro';-inkscape-font-specification:'A-OTF Folk Pro Bold';letter-spacing:1.05833px;word-spacing:0px;stroke-width:0.264583"
         id="path77030" />
      <path
         d="m 450.87228,142.97191 -0.85159,2.95262 -0.64218,2.01728 -0.63519,-2.01728 -0.85159,-2.95262 h -1.1657 l 1.85674,5.55624 h 1.59847 l 1.85673,-5.55624 z"
         style="font-weight:bold;font-size:6.98021px;line-height:1.25;font-family:'A-OTF Folk Pro';-inkscape-font-specification:'A-OTF Folk Pro Bold';letter-spacing:1.05833px;word-spacing:0px;stroke-width:0.264583"
         id="path77032" />
      <path
         d="m 454.90585,148.52815 h 1.25644 l 0.90743,-4.94897 0.90742,4.94897 h 1.25644 l 1.13778,-5.55624 h -1.11684 l -0.46069,2.64549 -0.41183,2.29649 -0.90743,-4.94198 h -0.81669 l -0.90044,4.935 -0.3909,-2.2197 -0.47465,-2.7153 h -1.12381 z"
         style="font-weight:bold;font-size:6.98021px;line-height:1.25;font-family:'A-OTF Folk Pro';-inkscape-font-specification:'A-OTF Folk Pro Bold';letter-spacing:1.05833px;word-spacing:0px;stroke-width:0.264583"
         id="path77034" />
      <path
         d="m 465.67532,148.52815 h 1.33322 l -1.94748,-3.05035 1.77995,-2.50589 h -0.62822 l -1.43094,2.07312 -1.2355,-2.07312 h -1.33322 l 1.82184,2.88282 -1.93352,2.67342 h 0.62124 l 1.57753,-2.24064 z"
         style="font-weight:bold;font-size:6.98021px;line-height:1.25;font-family:'A-OTF Folk Pro';-inkscape-font-specification:'A-OTF Folk Pro Bold';letter-spacing:1.05833px;word-spacing:0px;stroke-width:0.264583"
         id="path77036" />
      <path
         d="m 470.6582,146.113 v 2.41515 h 1.08193 v -2.54079 l 1.9056,-3.01545 h -0.62822 l -1.50772,2.49193 -1.41001,-2.49193 h -1.36114 z"
         style="font-weight:bold;font-size:6.98021px;line-height:1.25;font-family:'A-OTF Folk Pro';-inkscape-font-specification:'A-OTF Folk Pro Bold';letter-spacing:1.05833px;word-spacing:0px;stroke-width:0.264583"
         id="path77038" />
      <path
         d="m 475.58524,143.42562 h 3.15506 l -3.36446,4.6558 v 0.44673 h 4.83728 v -0.44673 h -3.51802 l 3.34352,-4.64882 v -0.46069 h -4.45338 z"
         style="font-weight:bold;font-size:6.98021px;line-height:1.25;font-family:'A-OTF Folk Pro';-inkscape-font-specification:'A-OTF Folk Pro Bold';letter-spacing:1.05833px;word-spacing:0px;stroke-width:0.264583"
         id="path77040" />
      <path
         d="m 483.81528,148.52815 v -0.38401 h -0.96604 v -4.78223 h 0.96604 v -0.39001 h -1.87208 v 5.55625 z"
         style="font-weight:bold;font-size:6.98021px;line-height:1.25;font-family:'A-OTF Folk Pro';-inkscape-font-specification:'A-OTF Folk Pro Bold';letter-spacing:1.05833px;word-spacing:0px;stroke-width:0.264583"
         id="path77042" />
      <path
         d="m 485.54537,143.15353 2.67722,5.37462 0.36324,-0.18162 -2.67722,-5.37463 z"
         style="font-weight:bold;font-size:6.98021px;line-height:1.25;font-family:'A-OTF Folk Pro';-inkscape-font-specification:'A-OTF Folk Pro Bold';letter-spacing:1.05833px;word-spacing:0px;stroke-width:0.264583"
         id="path77044" />
      <path
         d="m 492.194,148.52815 v -5.55625 h -1.87809 v 0.39001 h 0.96605 v 4.78223 h -0.96605 v 0.38401 z"
         style="font-weight:bold;font-size:6.98021px;line-height:1.25;font-family:'A-OTF Folk Pro';-inkscape-font-specification:'A-OTF Folk Pro Bold';letter-spacing:1.05833px;word-spacing:0px;stroke-width:0.264583"
         id="path77046" />
      <path
         d="m 496.26246,142.9719 h -0.68406 l -1.65431,3.53896 h 0.90743 l 1.08891,-2.50589 1.08194,2.50589 h 0.90742 z"
         style="font-weight:bold;font-size:6.98021px;line-height:1.25;font-family:'A-OTF Folk Pro';-inkscape-font-specification:'A-OTF Folk Pro Bold';letter-spacing:1.05833px;word-spacing:0px;stroke-width:0.264583"
         id="path77048" />
      <path
         d="m 503.12999,148.17914 h -3.4901 v 0.34901 h 3.4901 z"
         style="font-weight:bold;font-size:6.98021px;line-height:1.25;font-family:'A-OTF Folk Pro';-inkscape-font-specification:'A-OTF Folk Pro Bold';letter-spacing:1.05833px;word-spacing:0px;stroke-width:0.264583"
         id="path77050" />
      <path
         d="m 506.35385,143.92121 h 0.53049 l -0.78178,-0.94931 h -1.24248 z"
         style="font-weight:bold;font-size:6.98021px;line-height:1.25;font-family:'A-OTF Folk Pro';-inkscape-font-specification:'A-OTF Folk Pro Bold';letter-spacing:1.05833px;word-spacing:0px;stroke-width:0.264583"
         id="path77052" />
      <path
         d="m 512.5094,148.42344 c -0.12565,-0.25827 -0.14659,-0.76084 -0.14659,-0.87252 v -1.57753 c 0,-1.2704 -0.99817,-1.50773 -1.73109,-1.50773 -1.73807,0 -1.81485,0.84461 -1.84976,1.21456 h 1.0261 c 0,-0.34901 0.0907,-0.76782 0.7399,-0.76782 0.55143,0 0.83762,0.15356 0.83762,0.8097 v 0.30015 c -2.23366,0.0349 -2.77114,0.6003 -2.77114,1.38208 0,1.12382 1.13777,1.12382 1.3751,1.12382 0.92139,0 1.26342,-0.29317 1.45886,-0.46768 0.0768,0.18149 0.13263,0.26525 0.22337,0.36297 z m -1.12382,-0.80272 c -0.39089,0.36297 -0.81668,0.37693 -0.97723,0.37693 -0.32109,0 -0.8097,-0.0489 -0.8097,-0.64916 0,-0.85159 0.97723,-0.86555 1.78693,-0.87951 z"
         style="font-weight:bold;font-size:6.98021px;line-height:1.25;font-family:'A-OTF Folk Pro';-inkscape-font-specification:'A-OTF Folk Pro Bold';letter-spacing:1.05833px;word-spacing:0px;stroke-width:0.264583"
         id="path77054" />
      <path
         d="m 514.23948,142.9719 v 5.45348 h 0.91119 l 0.0137,-0.40422 c 0.11648,0.13702 0.41793,0.50699 1.15784,0.50699 1.16469,0 1.60316,-1.00027 1.60316,-1.97998 0,-1.17839 -0.53439,-2.00737 -1.61001,-2.00737 -0.28775,0 -0.63715,0.0548 -1.10302,0.50698 v -2.07588 z m 0.97286,2.69933 c 0.11646,-0.3631 0.3357,-0.65085 0.82898,-0.65085 0.63715,0 0.84269,0.50698 0.84269,1.46613 0,1.31541 -0.34256,1.58946 -0.84954,1.58946 -0.5481,0 -0.69197,-0.2809 -0.82213,-0.52753 z"
         style="font-weight:bold;font-size:6.98021px;line-height:1.25;font-family:'A-OTF Folk Pro';-inkscape-font-specification:'A-OTF Folk Pro Bold';letter-spacing:1.05833px;word-spacing:0px;stroke-width:0.264583"
         id="path77056" />
      <path
         d="m 522.51038,146.94364 c -0.007,0.40485 -0.0628,1.13777 -0.85159,1.13777 -0.42579,0 -0.94931,-0.1047 -0.94931,-1.59149 0,-1.29831 0.40486,-1.57054 0.93535,-1.57054 0.50258,0 0.90045,0.2443 0.87951,1.05401 h 1.02609 c -0.11168,-0.97025 -0.82367,-1.50773 -1.89164,-1.50773 -1.16569,0 -2.00332,0.69104 -2.00332,2.03124 0,0.84461 0.35599,2.03125 1.98936,2.03125 1.73109,0 1.8707,-1.21456 1.91258,-1.58451 z"
         style="font-weight:bold;font-size:6.98021px;line-height:1.25;font-family:'A-OTF Folk Pro';-inkscape-font-specification:'A-OTF Folk Pro Bold';letter-spacing:1.05833px;word-spacing:0px;stroke-width:0.264583"
         id="path77058" />
      <path
         d="m 528.00054,142.9719 v 2.07588 c -0.46589,-0.45217 -0.81529,-0.50698 -1.10304,-0.50698 -1.08247,0 -1.61001,0.82898 -1.61001,2.00737 0,0.97971 0.43848,1.97998 1.60316,1.97998 0.73993,0 1.03452,-0.36997 1.15099,-0.50699 l 0.0205,0.40422 h 0.90435 v -5.45348 z m 0,4.57654 c -0.13018,0.24663 -0.2809,0.52753 -0.82214,0.52753 -0.51383,0 -0.85638,-0.27405 -0.85638,-1.58946 0,-0.95915 0.20552,-1.46613 0.84268,-1.46613 0.49328,0 0.71936,0.28775 0.83584,0.65085 z"
         style="font-weight:bold;font-size:6.98021px;line-height:1.25;font-family:'A-OTF Folk Pro';-inkscape-font-specification:'A-OTF Folk Pro Bold';letter-spacing:1.05833px;word-spacing:0px;stroke-width:0.264583"
         id="path77060" />
      <path
         d="m 533.41887,147.02042 c -0.007,0.30713 -0.0349,1.07495 -0.80273,1.07495 -0.7748,0 -0.8446,-0.69802 -0.87252,-1.40302 h 2.74322 c 0,-0.5654 -0.014,-2.22669 -1.89164,-2.22669 -1.31228,0 -1.89861,0.83763 -1.89861,2.03124 0,0.90045 0.32109,2.03125 1.91257,2.03125 1.61243,0 1.8009,-1.10986 1.86372,-1.50773 z m -1.67525,-0.72594 c 0.0419,-0.94931 0.19544,-1.39604 0.8795,-1.39604 0.75387,0 0.78877,0.76782 0.80273,1.39604 z"
         style="font-weight:bold;font-size:6.98021px;line-height:1.25;font-family:'A-OTF Folk Pro';-inkscape-font-specification:'A-OTF Folk Pro Bold';letter-spacing:1.05833px;word-spacing:0px;stroke-width:0.264583"
         id="path77062" />
      <path
         d="m 536.21692,144.74634 v 0.41792 h 0.68511 v 3.36389 h 0.96601 v -3.36389 h 1.01396 v -0.41792 h -1.01396 v -0.74678 c 0,-0.53438 0.3083,-0.54123 0.47957,-0.54123 0.18498,0 0.322,0.0548 0.45217,0.14387 l 0.12332,-0.37681 c -0.41106,-0.25349 -0.91805,-0.25349 -0.95915,-0.25349 -0.56179,0 -1.06192,0.2809 -1.06192,1.11674 v 0.6577 z"
         style="font-weight:bold;font-size:6.98021px;line-height:1.25;font-family:'A-OTF Folk Pro';-inkscape-font-specification:'A-OTF Folk Pro Bold';letter-spacing:1.05833px;word-spacing:0px;stroke-width:0.264583"
         id="path77064" />
      <path
         d="m 544.61794,143.63506 c -0.0419,-0.0209 -0.0838,-0.0489 -0.20941,-0.0489 -0.35599,0 -0.49559,0.18847 -0.6003,0.33505 -0.40485,-0.24431 -0.92836,-0.26525 -1.22153,-0.26525 -0.64218,0 -1.73109,0.10471 -1.73109,1.10288 0,0.0907 0.014,0.53049 0.36297,0.82366 -0.11169,0.0628 -0.35599,0.20941 -0.35599,0.50956 0,0.41183 0.39089,0.46069 0.63519,0.49559 -0.53049,0.11168 -0.8446,0.39089 -0.8446,0.89347 0,1.04703 1.43792,1.04703 1.81485,1.04703 1.75204,0 2.02426,-0.6003 2.02426,-1.14475 0,-1.08892 -1.20757,-1.11684 -2.38723,-1.15872 -0.49559,-0.014 -0.55143,-0.1396 -0.55143,-0.25129 0,-0.0628 0.0279,-0.12564 0.0768,-0.1745 0.16752,0.0489 0.38391,0.11866 0.91441,0.11866 0.60727,0 1.70317,-0.0768 1.70317,-1.10287 0,-0.0349 0,-0.29317 -0.15357,-0.55842 0.0419,-0.007 0.12565,-0.014 0.17451,-0.014 0.16752,0 0.22336,0.0489 0.29317,0.11168 z m -2.0452,1.82882 c -0.14659,0 -0.72595,0 -0.72595,-0.6701 0,-0.17451 0.0558,-0.68406 0.69803,-0.68406 0.16752,0 0.71198,0 0.71198,0.67708 0,0.67708 -0.52352,0.67708 -0.68406,0.67708 z m 0.014,1.22851 c 0.35599,0 0.9144,0.0907 0.9144,0.69803 0,0.68406 -0.7748,0.68406 -0.94232,0.68406 -0.15357,0 -0.92139,0 -0.92139,-0.69104 0,-0.69105 0.7399,-0.69105 0.94931,-0.69105 z"
         style="font-weight:bold;font-size:6.98021px;line-height:1.25;font-family:'A-OTF Folk Pro';-inkscape-font-specification:'A-OTF Folk Pro Bold';letter-spacing:1.05833px;word-spacing:0px;stroke-width:0.264583"
         id="path77066" />
      <path
         d="m 549.99169,148.52815 v -2.56173 c 0,-0.90045 -0.44673,-1.39605 -1.35416,-1.39605 -0.82366,0 -1.13777,0.4258 -1.3053,0.64916 v -2.24762 h -0.98421 v 5.55624 h 0.98421 v -2.66644 c 0.0838,-0.19544 0.32109,-0.74688 0.97025,-0.74688 0.62124,0 0.69802,0.39089 0.69802,0.71198 v 2.70134 z"
         style="font-weight:bold;font-size:6.98021px;line-height:1.25;font-family:'A-OTF Folk Pro';-inkscape-font-specification:'A-OTF Folk Pro Bold';letter-spacing:1.05833px;word-spacing:0px;stroke-width:0.264583"
         id="path77068" />
      <path
         d="m 551.72179,148.52815 h 0.98421 v -3.85307 h -0.98421 z m 0,-4.54411 h 0.98421 v -1.01213 h -0.98421 z"
         style="font-weight:bold;font-size:6.98021px;line-height:1.25;font-family:'A-OTF Folk Pro';-inkscape-font-specification:'A-OTF Folk Pro Bold';letter-spacing:1.05833px;word-spacing:0px;stroke-width:0.264583"
         id="path77070" />
      <path
         d="m 554.8921,144.43597 v 3.25214 c 0,0.38402 -0.138,0.44402 -0.34201,0.44402 h -0.114 v 0.39602 h 0.54002 c 0.53402,0 0.76203,-0.28201 0.76203,-0.82804 v -3.26414 z m 0.84604,-0.58803 v -0.87604 h -0.84604 v 0.87604 z"
         style="font-weight:bold;font-size:6.98021px;line-height:1.25;font-family:'A-OTF Folk Pro';-inkscape-font-specification:'A-OTF Folk Pro Bold';letter-spacing:1.05833px;word-spacing:0px;stroke-width:0.264583"
         id="path77072" />
      <path
         d="m 561.20265,144.67508 h -0.78179 l -1.96143,1.36812 v -3.07129 h -0.99119 v 5.55624 h 0.99119 v -1.89163 l 0.23034,-0.18149 1.41698,2.07312 h 1.22154 l -1.85673,-2.60362 z"
         style="font-weight:bold;font-size:6.98021px;line-height:1.25;font-family:'A-OTF Folk Pro';-inkscape-font-specification:'A-OTF Folk Pro Bold';letter-spacing:1.05833px;word-spacing:0px;stroke-width:0.264583"
         id="path77074" />
      <path
         d="m 563.05837,148.52815 h 0.99119 v -5.55624 h -0.99119 z"
         style="font-weight:bold;font-size:6.98021px;line-height:1.25;font-family:'A-OTF Folk Pro';-inkscape-font-specification:'A-OTF Folk Pro Bold';letter-spacing:1.05833px;word-spacing:0px;stroke-width:0.264583"
         id="path77076" />
      <path
         d="m 565.77965,144.67508 v 3.85307 h 0.98421 v -2.69436 c 0,-0.15356 0.30713,-0.73292 0.75386,-0.73292 0.46069,0 0.46069,0.48163 0.46069,0.67708 v 2.7502 h 0.98421 v -2.74322 c 0.10471,-0.29317 0.38391,-0.66312 0.73292,-0.66312 0.47466,0 0.47466,0.48163 0.47466,0.64916 v 2.75718 h 0.99119 v -2.70832 c 0,-0.94931 -0.6701,-1.24946 -1.1308,-1.24946 -0.68406,0 -0.99817,0.45372 -1.16569,0.69802 -0.32109,-0.69802 -0.90045,-0.69802 -1.01911,-0.69802 -0.11169,0 -0.68406,0 -1.09589,0.62822 l -0.0279,-0.52351 z"
         style="font-weight:bold;font-size:6.98021px;line-height:1.25;font-family:'A-OTF Folk Pro';-inkscape-font-specification:'A-OTF Folk Pro Bold';letter-spacing:1.05833px;word-spacing:0px;stroke-width:0.264583"
         id="path77078" />
      <path
         d="m 575.54395,148.52815 h 0.99119 v -2.49193 c 0,-1.22852 -0.75386,-1.46585 -1.43094,-1.46585 -0.58634,0 -0.92837,0.20941 -1.24946,0.64916 l -0.0279,-0.54445 h -0.93535 v 3.85307 h 0.98419 v -2.72926 c 0.1047,-0.22337 0.33505,-0.71198 0.97025,-0.71198 0.30015,0 0.69802,0.0768 0.69802,0.76782 z"
         style="font-weight:bold;font-size:6.98021px;line-height:1.25;font-family:'A-OTF Folk Pro';-inkscape-font-specification:'A-OTF Folk Pro Bold';letter-spacing:1.05833px;word-spacing:0px;stroke-width:0.264583"
         id="path77080" />
      <path
         d="m 580.19875,144.46566 c -1.38208,0 -1.93352,1.01911 -1.93352,2.0452 0,1.04704 0.5654,2.01729 1.93352,2.01729 1.22851,0 1.93352,-0.80971 1.93352,-2.03125 0,-1.14475 -0.62822,-2.03124 -1.93352,-2.03124 z m 0,0.45372 c 0.48163,0 0.90044,0.27921 0.90044,1.54262 0,0.71198 -0.1047,1.61941 -0.90044,1.61941 -0.74689,0 -0.90045,-0.80272 -0.90045,-1.57753 0,-0.87252 0.16752,-1.5845 0.90045,-1.5845 z"
         style="font-weight:bold;font-size:6.98021px;line-height:1.25;font-family:'A-OTF Folk Pro';-inkscape-font-specification:'A-OTF Folk Pro Bold';letter-spacing:1.05833px;word-spacing:0px;stroke-width:0.264583"
         id="path77082" />
      <path
         d="m 584.79074,143.76765 h -0.92837 v 4.7605 h 0.99119 v -1.25644 c 0.19545,0.19545 0.45372,0.45372 1.07496,0.45372 0.82366,0 1.70317,-0.5305 1.70317,-2.05917 0,-1.5496 -0.92837,-2.00332 -1.73808,-2.00332 -0.40485,0 -0.78178,0.14659 -1.08193,0.46768 z m 0.0628,0.90742 c 0.0698,-0.15356 0.24431,-0.56539 0.85857,-0.56539 0.32109,0 0.88649,0.0349 0.88649,1.43094 0,1.24946 -0.22337,1.69619 -0.93535,1.69619 -0.39787,0 -0.64218,-0.16054 -0.80971,-0.50955 z"
         style="font-weight:bold;font-size:6.98021px;line-height:1.25;font-family:'A-OTF Folk Pro';-inkscape-font-specification:'A-OTF Folk Pro Bold';letter-spacing:1.05833px;word-spacing:0px;stroke-width:0.264583"
         id="path77084" />
      <path
         d="m 592.18876,144.13062 c -0.30015,-0.32109 -0.68406,-0.46768 -1.08194,-0.46768 -0.8097,0 -1.74505,0.45372 -1.74505,2.00332 0,1.52867 0.88649,2.05917 1.71015,2.05917 0.62124,0 0.87951,-0.25827 1.06797,-0.45372 l 0.007,1.25644 h 0.98421 v -4.7605 h -0.92138 z m -0.0419,2.59664 c -0.1745,0.34901 -0.41183,0.50955 -0.81668,0.50955 -0.705,0 -0.92837,-0.44673 -0.92837,-1.69619 0,-1.39604 0.5654,-1.43094 0.88649,-1.43094 0.60728,0 0.78876,0.41183 0.85856,0.56539 z"
         style="font-weight:bold;font-size:6.98021px;line-height:1.25;font-family:'A-OTF Folk Pro';-inkscape-font-specification:'A-OTF Folk Pro Bold';letter-spacing:1.05833px;word-spacing:0px;stroke-width:0.264583"
         id="path77086" />
      <path
         d="m 596.99021,144.57037 c -0.84461,0.0349 -1.05401,0.62124 -1.14476,0.87253 l -0.014,-0.76782 h -0.97024 v 3.85307 h 0.9842 v -2.42911 c 0.0977,-0.27223 0.23035,-0.66312 1.14476,-0.65614 z"
         style="font-weight:bold;font-size:6.98021px;line-height:1.25;font-family:'A-OTF Folk Pro';-inkscape-font-specification:'A-OTF Folk Pro Bold';letter-spacing:1.05833px;word-spacing:0px;stroke-width:0.264583"
         id="path77088" />
      <path
         d="m 598.72031,147.06928 c 0.0279,1.05401 0.79575,1.45887 1.80788,1.45887 0.7748,0 1.61243,-0.23035 1.61243,-1.1308 0,-0.43975 -0.19545,-0.93535 -1.1657,-1.24946 -1.04005,-0.33505 -1.15173,-0.39787 -1.15173,-0.71896 0,-0.48163 0.32807,-0.53049 0.57237,-0.53049 0.71198,0 0.71897,0.44673 0.72595,0.85158 h 0.99817 c -0.0279,-0.92139 -0.78877,-1.28436 -1.65431,-1.28436 -0.34901,0 -1.63337,0.0349 -1.63337,1.12382 0,0.67708 0.39787,0.82366 1.78693,1.31926 0.21639,0.0768 0.52352,0.19544 0.52352,0.61426 0,0.15356 0,0.56539 -0.64916,0.56539 -0.71897,0 -0.76783,-0.53049 -0.76783,-1.01911 z"
         style="font-weight:bold;font-size:6.98021px;line-height:1.25;font-family:'A-OTF Folk Pro';-inkscape-font-specification:'A-OTF Folk Pro Bold';letter-spacing:1.05833px;word-spacing:0px;stroke-width:0.264583"
         id="path77090" />
      <path
         d="m 605.60878,144.98918 h 1.04006 v -0.41881 h -1.04006 v -1.31228 l -0.99118,0.2094 v 1.10288 h -0.74689 v 0.41881 h 0.74689 v 2.44307 c 0,1.01213 0.69802,1.0959 1.07495,1.0959 0.25128,0 0.67708,-0.0489 0.99817,-0.25129 l -0.11867,-0.39089 c -0.1047,0.0698 -0.2443,0.15356 -0.48861,0.15356 -0.25827,0 -0.47466,-0.0628 -0.47466,-0.5654 z"
         style="font-weight:bold;font-size:6.98021px;line-height:1.25;font-family:'A-OTF Folk Pro';-inkscape-font-specification:'A-OTF Folk Pro Bold';letter-spacing:1.05833px;word-spacing:0px;stroke-width:0.264583"
         id="path77092" />
      <path
         d="m 609.41201,144.57037 h -0.99119 v 2.49891 c 0,0.95629 0.50258,1.45887 1.42396,1.45887 0.64218,0 0.97723,-0.23733 1.26342,-0.66312 l 0.0209,0.55841 h 0.93535 v -3.85307 h -0.99119 v 2.73624 c -0.28619,0.60728 -0.6003,0.705 -0.94931,0.705 -0.38391,0 -0.71198,-0.15356 -0.71198,-0.7748 z"
         style="font-weight:bold;font-size:6.98021px;line-height:1.25;font-family:'A-OTF Folk Pro';-inkscape-font-specification:'A-OTF Folk Pro Bold';letter-spacing:1.05833px;word-spacing:0px;stroke-width:0.264583"
         id="path77094" />
      <path
         d="m 615.02307,148.52815 h 1.61941 l 1.22154,-3.85307 h -1.05401 l -0.97723,3.40634 -0.97723,-3.40634 h -1.061 z"
         style="font-weight:bold;font-size:6.98021px;line-height:1.25;font-family:'A-OTF Folk Pro';-inkscape-font-specification:'A-OTF Folk Pro Bold';letter-spacing:1.05833px;word-spacing:0px;stroke-width:0.264583"
         id="path77096" />
      <path
         d="m 623.02138,144.67508 h -0.62822 l -0.8446,3.23881 -0.89347,-3.23881 h -1.06099 l 1.15871,3.85307 h 1.1308 l 0.82366,-3.21089 0.83065,3.21089 h 1.12381 l 1.15871,-3.85307 h -1.06099 l -0.89346,3.23881 z"
         style="font-weight:bold;font-size:6.98021px;line-height:1.25;font-family:'A-OTF Folk Pro';-inkscape-font-specification:'A-OTF Folk Pro Bold';letter-spacing:1.05833px;word-spacing:0px;stroke-width:0.264583"
         id="path77098" />
      <path
         d="m 630.36356,148.52815 h 1.21455 l -1.52168,-2.10802 1.41,-1.74505 h -0.64218 l -1.05401,1.35416 -0.96327,-1.35416 h -1.22154 l 1.47283,2.02426 -1.50773,1.82881 h 0.64218 l 1.13777,-1.43792 z"
         style="font-weight:bold;font-size:6.98021px;line-height:1.25;font-family:'A-OTF Folk Pro';-inkscape-font-specification:'A-OTF Folk Pro Bold';letter-spacing:1.05833px;word-spacing:0px;stroke-width:0.264583"
         id="path77100" />
      <path
         d="m 634.82988,148.52815 h 0.54445 l 2.0103,-4.7605 h -0.55841 l -0.99817,2.45703 -1.35416,-2.45703 h -1.1657 l 2.02426,3.62273 z"
         style="font-weight:bold;font-size:6.98021px;line-height:1.25;font-family:'A-OTF Folk Pro';-inkscape-font-specification:'A-OTF Folk Pro Bold';letter-spacing:1.05833px;word-spacing:0px;stroke-width:0.264583"
         id="path77102" />
      <path
         d="m 639.32411,145.09389 h 2.24763 l -2.45703,3.07129 v 0.36297 h 3.85307 v -0.41881 h -2.58268 l 2.42214,-3.02243 v -0.41183 h -3.48313 z"
         style="font-weight:bold;font-size:6.98021px;line-height:1.25;font-family:'A-OTF Folk Pro';-inkscape-font-specification:'A-OTF Folk Pro Bold';letter-spacing:1.05833px;word-spacing:0px;stroke-width:0.264583"
         id="path77104" />
      <path
         d="m 645.13481,147.34723 c 0,1.0333 0.65541,1.1514 1.73596,1.18092 v -0.34247 c -0.5137,-0.059 -0.84436,-0.0945 -0.84436,-0.7676 v -1.02741 c 0,-0.10628 0,-0.50188 -0.50189,-0.63769 0.46055,-0.1299 0.50189,-0.47828 0.50189,-0.6377 v -1.02741 c 0,-0.67902 0.33066,-0.71445 0.84436,-0.7676 v -0.34837 c -1.07464,0.0295 -1.73596,0.14762 -1.73596,1.18683 v 0.90931 c 0,0.44285 -0.28933,0.48418 -0.43694,0.5078 v 0.34837 c 0.20666,0.0354 0.43694,0.14171 0.43694,0.5078 z"
         style="font-weight:bold;font-size:6.98021px;line-height:1.25;font-family:'A-OTF Folk Pro';-inkscape-font-specification:'A-OTF Folk Pro Bold';letter-spacing:1.05833px;word-spacing:0px;stroke-width:0.264583"
         id="path77106" />
      <path
         d="m 648.60086,142.9719 v 2.16009 h 0.85204 v -2.16009 z m 0,3.39615 v 2.1601 h 0.85204 v -2.1601 z"
         style="font-weight:bold;font-size:6.98021px;line-height:1.25;font-family:'A-OTF Folk Pro';-inkscape-font-specification:'A-OTF Folk Pro Bold';letter-spacing:1.05833px;word-spacing:0px;stroke-width:0.264583"
         id="path77108" />
      <path
         d="m 652.92486,146.43201 c 0,-0.36609 0.23028,-0.47237 0.43695,-0.5078 v -0.34837 c -0.14762,-0.0236 -0.43695,-0.065 -0.43695,-0.5078 v -0.90931 c 0,-1.03921 -0.66131,-1.15731 -1.74186,-1.18683 v 0.34837 c 0.5137,0.0531 0.84436,0.0886 0.84436,0.7676 v 1.02741 c 0,0.15942 0.0472,0.5078 0.50189,0.6377 -0.50189,0.13581 -0.50189,0.53141 -0.50189,0.63769 v 1.02741 c 0,0.67312 -0.32475,0.70856 -0.84436,0.7676 v 0.34247 c 1.08645,-0.0295 1.74186,-0.14762 1.74186,-1.18092 z"
         style="font-weight:bold;font-size:6.98021px;line-height:1.25;font-family:'A-OTF Folk Pro';-inkscape-font-specification:'A-OTF Folk Pro Bold';letter-spacing:1.05833px;word-spacing:0px;stroke-width:0.264583"
         id="path77110" />
      <path
         d="m 657.36745,145.35564 c -0.1396,0.12564 -0.32109,0.19545 -0.50955,0.19545 -0.0768,0 -0.18847,-0.007 -0.44674,-0.11169 -0.20242,-0.0838 -0.33505,-0.1396 -0.57935,-0.1396 -0.36297,0 -0.5654,0.15356 -0.73991,0.28619 l 0.26525,0.5654 c 0.0838,-0.0698 0.24431,-0.20243 0.50956,-0.20243 0.16752,0 0.38391,0.0768 0.44673,0.1047 0.27223,0.10471 0.39089,0.14659 0.61426,0.14659 0.41183,0 0.59332,-0.17451 0.71896,-0.29317 z"
         style="font-weight:bold;font-size:6.98021px;line-height:1.25;font-family:'A-OTF Folk Pro';-inkscape-font-specification:'A-OTF Folk Pro Bold';letter-spacing:1.05833px;word-spacing:0px;stroke-width:0.264583"
         id="path77112" />
    </g>
  </g>
</svg>
